<svg width="55" height="32" viewBox="0 0 55 32" fill="none" xmlns="http://www.w3.org/2000/svg">
<path fill-rule="evenodd" clip-rule="evenodd" d="M48.6951 19.6245C49.1643 19.5583 50.5707 18.0165 51.0409 18.0165C51.509 18.0165 53.5182 18.418 53.5182 18.0838C53.5182 17.7485 54.1884 16.6093 54.0527 16.2741C53.9211 15.9388 53.249 15.4701 53.3846 15.1348C53.5182 14.7996 54.4556 14.7996 54.4556 14.3971C54.4556 13.9956 53.7192 13.7948 53.7192 13.5258C53.7192 13.2599 54.6565 12.7891 54.5892 12.2541C54.5229 11.7171 53.7192 11.6499 52.8492 11.1821C51.9782 10.7104 51.1052 10.9121 50.3015 10.5116C49.4988 10.1091 47.8242 10.3771 47.8242 10.1091C47.8242 9.84115 46.7533 8.96991 46.484 8.50116C46.2168 8.03242 45.3468 8.29941 44.8103 8.63466C44.2739 8.9699 43.8037 9.10341 43.2702 8.76816C42.7338 8.43292 42.2657 7.89692 41.7965 8.09767C41.3263 8.29942 40.4563 8.16592 40.6563 7.49543C40.8572 6.82393 39.7863 5.35246 39.3171 5.15071C38.847 4.94796 37.4405 5.28321 37.107 4.61472C36.7704 3.94222 36.1687 3.40724 36.4369 2.93849C36.7051 2.46975 36.3696 1.19501 36.0351 0.660018C35.6996 0.123022 34.0249 0.191277 33.5577 0.392024C33.0866 0.591766 32.0146 0.191272 31.5475 0.458264C31.0763 0.727264 30.8111 1.195 30.139 1.195C29.7663 1.195 29.5172 1.14583 29.3143 0.85073C28.5889 1.17795 27.3734 1.24318 27.3734 1.24318C27.3734 1.24318 25.5841 2.67049 25.5841 3.20548C25.5841 3.74247 25.4987 4.6368 25.0487 4.19014C24.6026 3.74448 22.7281 3.74247 22.282 4.01047C21.834 4.27947 21.1207 2.93849 20.315 3.38616C19.5133 3.83282 18.4404 2.75982 18.35 3.20548C18.2616 3.65515 17.1012 3.29783 16.2965 2.93849C15.4929 2.58217 14.0623 3.11916 13.5268 2.49183C12.9914 1.8665 9.50843 1.8665 8.3481 1.8665C7.18678 1.8665 6.91852 2.49183 6.38206 3.02882C5.89783 3.51563 5.33629 3.41526 4.76667 3.38916C4.8159 3.83983 4.9053 4.24133 5.02083 4.41297C5.28705 4.81446 6.56089 6.75769 6.22435 7.36193C5.89182 7.96417 5.28704 7.96417 4.8852 8.43292C4.48235 8.90266 2.13859 10.9814 2.07329 11.3146C2.00498 11.6499 2.47413 13.1243 2.13859 13.3933C1.80506 13.6603 0.798462 15.0686 0.798462 15.6026C0.798462 16.1406 1.53482 16.8773 2.13859 17.078C2.39276 17.1644 2.55552 17.2828 2.62986 17.4243C3.09801 17.3611 3.529 17.325 3.79322 17.325C4.23926 17.325 6.20628 17.862 6.82813 17.862C7.45501 17.862 8.34806 18.129 8.61428 18.398C8.88452 18.6639 9.50838 18.4853 9.95643 18.0386C10.4025 17.593 10.939 17.862 11.4754 17.862C12.0079 17.862 12.904 17.4123 13.1712 16.9676C13.4384 16.522 16.1187 15.8053 16.833 15.715C17.5473 15.6277 18.6172 17.056 19.2421 17.056C19.8699 17.056 21.0292 17.5036 21.3879 18.6639C21.7465 19.8273 22.8164 21.2566 23.2625 21.7012C23.7095 22.1509 23.9767 23.3102 23.9767 23.6675C23.9767 24.0269 22.9952 23.5792 21.9223 23.3102C20.8534 23.0412 20.761 24.1142 20.761 24.6502C20.761 25.1872 19.242 27.0632 18.9768 27.4205C18.7076 27.7798 19.5133 28.0478 20.1381 28.1341C20.4034 28.1723 21.4783 27.4205 21.8339 27.4205C21.9796 27.4205 22.4246 27.7648 22.8978 28.1723C22.7973 26.7741 23.0857 26.8524 24.3344 25.9039C25.6293 24.9212 25.7629 23.0894 26.9243 22.8636C28.0856 22.6407 28.5749 22.1027 30.2726 22.3717C31.9704 22.6407 29.4268 23.7127 30.5841 24.338C31.7484 24.9664 35.3208 24.1604 35.4996 25.0517C35.6774 25.946 31.3898 26.8423 31.4792 27.288C31.5696 27.7337 33.7586 28.1813 34.5161 28.6711C35.2756 29.164 34.2931 30.5481 34.6507 30.9948C35.0103 31.4414 36.1687 31.0831 37.107 30.4146C38.0453 29.7431 38.8038 29.967 40.0103 29.164C41.2148 28.36 43.7163 29.0726 44.0308 28.5838C44.3412 28.091 43.3135 27.6012 40.9908 27.7798C38.6702 27.9575 38.5345 25.7684 38.5345 25.3197C38.5345 24.874 40.9476 23.0412 42.3309 22.9097C43.7163 22.7752 44.8324 22.3717 46.1716 21.7484C46.712 21.4975 47.6604 21.2405 48.6278 21.0568C48.4822 20.4245 48.2943 19.6827 48.6951 19.6245Z" fill="#C5D891"/>
</svg>
